<mxfile host="app.diagrams.net" modified="2023-12-01T18:26:58.309Z" agent="5.0 (Windows NT 10.0; Win64; x64) AppleWebKit/537.36 (KHTML, like Gecko) Chrome/118.0.0.0 Safari/537.36 OPR/104.0.0.0" etag="0Gh2hWLUWTGiURkYr3Ye" version="20.4.1" type="github">
  <diagram id="prtHgNgQTEPvFCAcTncT" name="Page-1">
    <mxGraphModel dx="2452" dy="899" grid="1" gridSize="10" guides="1" tooltips="1" connect="1" arrows="1" fold="1" page="1" pageScale="1" pageWidth="827" pageHeight="1169" math="0" shadow="0">
      <root>
        <mxCell id="0" />
        <mxCell id="1" parent="0" />
        <mxCell id="45bAfZuj3s9cAP-3UW4G-1" value="Struktur Medien und Sozialverhalten" style="text;html=1;strokeColor=none;fillColor=none;align=center;verticalAlign=middle;whiteSpace=wrap;rounded=0;fontSize=15;" vertex="1" parent="1">
          <mxGeometry x="123" y="20" width="241" height="50" as="geometry" />
        </mxCell>
        <mxCell id="45bAfZuj3s9cAP-3UW4G-3" style="edgeStyle=orthogonalEdgeStyle;rounded=0;orthogonalLoop=1;jettySize=auto;html=1;exitX=0.5;exitY=1;exitDx=0;exitDy=0;fontSize=15;" edge="1" parent="1" source="45bAfZuj3s9cAP-3UW4G-2" target="45bAfZuj3s9cAP-3UW4G-4">
          <mxGeometry relative="1" as="geometry">
            <mxPoint x="244" y="210" as="targetPoint" />
          </mxGeometry>
        </mxCell>
        <mxCell id="45bAfZuj3s9cAP-3UW4G-5" style="edgeStyle=orthogonalEdgeStyle;rounded=0;orthogonalLoop=1;jettySize=auto;html=1;fontSize=15;entryX=0.5;entryY=0;entryDx=0;entryDy=0;" edge="1" parent="1" source="45bAfZuj3s9cAP-3UW4G-2" target="45bAfZuj3s9cAP-3UW4G-10">
          <mxGeometry relative="1" as="geometry">
            <mxPoint x="90" y="200" as="targetPoint" />
          </mxGeometry>
        </mxCell>
        <mxCell id="45bAfZuj3s9cAP-3UW4G-6" style="edgeStyle=orthogonalEdgeStyle;rounded=0;orthogonalLoop=1;jettySize=auto;html=1;fontSize=15;" edge="1" parent="1" source="45bAfZuj3s9cAP-3UW4G-2" target="45bAfZuj3s9cAP-3UW4G-8">
          <mxGeometry relative="1" as="geometry">
            <mxPoint x="390" y="200" as="targetPoint" />
            <Array as="points">
              <mxPoint x="620" y="120" />
            </Array>
          </mxGeometry>
        </mxCell>
        <mxCell id="45bAfZuj3s9cAP-3UW4G-2" value="Einführung&lt;br&gt;Länge: 2min" style="rounded=0;whiteSpace=wrap;html=1;fontSize=15;" vertex="1" parent="1">
          <mxGeometry x="184" y="90" width="120" height="60" as="geometry" />
        </mxCell>
        <mxCell id="45bAfZuj3s9cAP-3UW4G-45" style="edgeStyle=orthogonalEdgeStyle;rounded=0;orthogonalLoop=1;jettySize=auto;html=1;fontSize=15;" edge="1" parent="1" source="45bAfZuj3s9cAP-3UW4G-4" target="45bAfZuj3s9cAP-3UW4G-46">
          <mxGeometry relative="1" as="geometry">
            <mxPoint x="150" y="300" as="targetPoint" />
            <Array as="points">
              <mxPoint x="130" y="230" />
            </Array>
          </mxGeometry>
        </mxCell>
        <mxCell id="45bAfZuj3s9cAP-3UW4G-79" style="edgeStyle=orthogonalEdgeStyle;rounded=0;orthogonalLoop=1;jettySize=auto;html=1;exitX=1;exitY=0.5;exitDx=0;exitDy=0;entryX=0.5;entryY=0;entryDx=0;entryDy=0;fontSize=15;" edge="1" parent="1" source="45bAfZuj3s9cAP-3UW4G-4" target="45bAfZuj3s9cAP-3UW4G-72">
          <mxGeometry relative="1" as="geometry" />
        </mxCell>
        <mxCell id="45bAfZuj3s9cAP-3UW4G-4" value="Medien und Hassrede" style="rounded=1;whiteSpace=wrap;html=1;fontSize=15;fillColor=#ffe6cc;strokeColor=#d79b00;" vertex="1" parent="1">
          <mxGeometry x="184" y="200" width="120" height="60" as="geometry" />
        </mxCell>
        <mxCell id="45bAfZuj3s9cAP-3UW4G-63" style="edgeStyle=orthogonalEdgeStyle;rounded=0;orthogonalLoop=1;jettySize=auto;html=1;fontSize=15;" edge="1" parent="1" source="45bAfZuj3s9cAP-3UW4G-8" target="45bAfZuj3s9cAP-3UW4G-64">
          <mxGeometry relative="1" as="geometry">
            <mxPoint x="510" y="310" as="targetPoint" />
            <Array as="points">
              <mxPoint x="570" y="285" />
              <mxPoint x="530" y="285" />
            </Array>
          </mxGeometry>
        </mxCell>
        <mxCell id="45bAfZuj3s9cAP-3UW4G-67" style="edgeStyle=orthogonalEdgeStyle;rounded=0;orthogonalLoop=1;jettySize=auto;html=1;fontSize=15;" edge="1" parent="1" source="45bAfZuj3s9cAP-3UW4G-8" target="45bAfZuj3s9cAP-3UW4G-68">
          <mxGeometry relative="1" as="geometry">
            <mxPoint x="820" y="319.9999999999998" as="targetPoint" />
            <Array as="points">
              <mxPoint x="660" y="293" />
              <mxPoint x="700" y="293" />
            </Array>
          </mxGeometry>
        </mxCell>
        <mxCell id="45bAfZuj3s9cAP-3UW4G-8" value="Medien und prosoziales Verhalten" style="rounded=1;whiteSpace=wrap;html=1;fontSize=15;fillColor=#ffe6cc;strokeColor=#d79b00;" vertex="1" parent="1">
          <mxGeometry x="550" y="200" width="120" height="60" as="geometry" />
        </mxCell>
        <mxCell id="45bAfZuj3s9cAP-3UW4G-33" style="edgeStyle=orthogonalEdgeStyle;rounded=0;orthogonalLoop=1;jettySize=auto;html=1;exitX=1;exitY=0.5;exitDx=0;exitDy=0;entryX=0.5;entryY=0;entryDx=0;entryDy=0;fontSize=15;" edge="1" parent="1" source="45bAfZuj3s9cAP-3UW4G-10" target="45bAfZuj3s9cAP-3UW4G-31">
          <mxGeometry relative="1" as="geometry" />
        </mxCell>
        <mxCell id="45bAfZuj3s9cAP-3UW4G-37" style="edgeStyle=orthogonalEdgeStyle;rounded=0;orthogonalLoop=1;jettySize=auto;html=1;exitX=0;exitY=0.5;exitDx=0;exitDy=0;entryX=0.5;entryY=0;entryDx=0;entryDy=0;fontSize=15;" edge="1" parent="1" source="45bAfZuj3s9cAP-3UW4G-10" target="45bAfZuj3s9cAP-3UW4G-34">
          <mxGeometry relative="1" as="geometry" />
        </mxCell>
        <mxCell id="45bAfZuj3s9cAP-3UW4G-41" style="edgeStyle=orthogonalEdgeStyle;rounded=0;orthogonalLoop=1;jettySize=auto;html=1;exitX=0.5;exitY=1;exitDx=0;exitDy=0;entryX=0.5;entryY=0;entryDx=0;entryDy=0;fontSize=15;" edge="1" parent="1" source="45bAfZuj3s9cAP-3UW4G-10" target="45bAfZuj3s9cAP-3UW4G-35">
          <mxGeometry relative="1" as="geometry" />
        </mxCell>
        <mxCell id="45bAfZuj3s9cAP-3UW4G-10" value="Medien und Gewalt" style="rounded=1;whiteSpace=wrap;html=1;fontSize=15;fillColor=#ffe6cc;strokeColor=#d79b00;" vertex="1" parent="1">
          <mxGeometry x="-315" y="200" width="150" height="60" as="geometry" />
        </mxCell>
        <mxCell id="45bAfZuj3s9cAP-3UW4G-43" value="" style="edgeStyle=orthogonalEdgeStyle;rounded=0;orthogonalLoop=1;jettySize=auto;html=1;fontSize=15;" edge="1" parent="1" source="45bAfZuj3s9cAP-3UW4G-12" target="45bAfZuj3s9cAP-3UW4G-17">
          <mxGeometry relative="1" as="geometry" />
        </mxCell>
        <mxCell id="45bAfZuj3s9cAP-3UW4G-12" value="Katharsis- und Inhibitionsthese&lt;br&gt;Sozialkognitive Lerntheorie&lt;br&gt;Länge: 2min" style="rounded=0;whiteSpace=wrap;html=1;fontSize=15;" vertex="1" parent="1">
          <mxGeometry x="-530" y="330" width="210" height="80" as="geometry" />
        </mxCell>
        <mxCell id="45bAfZuj3s9cAP-3UW4G-44" value="" style="edgeStyle=orthogonalEdgeStyle;rounded=0;orthogonalLoop=1;jettySize=auto;html=1;fontSize=15;" edge="1" parent="1" source="45bAfZuj3s9cAP-3UW4G-17" target="45bAfZuj3s9cAP-3UW4G-22">
          <mxGeometry relative="1" as="geometry" />
        </mxCell>
        <mxCell id="45bAfZuj3s9cAP-3UW4G-73" value="" style="edgeStyle=orthogonalEdgeStyle;rounded=0;orthogonalLoop=1;jettySize=auto;html=1;fontSize=15;" edge="1" parent="1" source="45bAfZuj3s9cAP-3UW4G-17" target="45bAfZuj3s9cAP-3UW4G-53">
          <mxGeometry relative="1" as="geometry" />
        </mxCell>
        <mxCell id="45bAfZuj3s9cAP-3UW4G-17" value="&amp;nbsp; Kultivierungshypothese, Desensibilisierungsthese &amp;amp; Habitalisierungshypothese&lt;br&gt;Länge: 2min" style="rounded=0;whiteSpace=wrap;html=1;fontSize=15;" vertex="1" parent="1">
          <mxGeometry x="-560" y="430" width="250" height="90" as="geometry" />
        </mxCell>
        <mxCell id="45bAfZuj3s9cAP-3UW4G-22" value="Frustrations- und Aggressionshypothese&lt;br&gt;Länge: 2min" style="rounded=0;whiteSpace=wrap;html=1;fontSize=15;" vertex="1" parent="1">
          <mxGeometry x="-540" y="544.5" width="210" height="60" as="geometry" />
        </mxCell>
        <mxCell id="45bAfZuj3s9cAP-3UW4G-28" style="edgeStyle=orthogonalEdgeStyle;rounded=0;orthogonalLoop=1;jettySize=auto;html=1;fontSize=15;" edge="1" parent="1" source="45bAfZuj3s9cAP-3UW4G-25" target="45bAfZuj3s9cAP-3UW4G-29">
          <mxGeometry relative="1" as="geometry">
            <mxPoint x="-235" y="540" as="targetPoint" />
          </mxGeometry>
        </mxCell>
        <mxCell id="45bAfZuj3s9cAP-3UW4G-25" value="General Agression Modell&lt;br&gt;Länge; 1:30min" style="rounded=0;whiteSpace=wrap;html=1;fontSize=15;" vertex="1" parent="1">
          <mxGeometry x="-295" y="340" width="120" height="60" as="geometry" />
        </mxCell>
        <mxCell id="45bAfZuj3s9cAP-3UW4G-54" style="edgeStyle=orthogonalEdgeStyle;rounded=0;orthogonalLoop=1;jettySize=auto;html=1;fontSize=15;" edge="1" parent="1" source="45bAfZuj3s9cAP-3UW4G-29" target="45bAfZuj3s9cAP-3UW4G-55">
          <mxGeometry relative="1" as="geometry">
            <mxPoint x="-235.00000000000023" y="540" as="targetPoint" />
          </mxGeometry>
        </mxCell>
        <mxCell id="45bAfZuj3s9cAP-3UW4G-29" value="Katalysator Modell&lt;br&gt;Länge 1:30min" style="rounded=0;whiteSpace=wrap;html=1;fontSize=15;" vertex="1" parent="1">
          <mxGeometry x="-295" y="420" width="120" height="60" as="geometry" />
        </mxCell>
        <mxCell id="45bAfZuj3s9cAP-3UW4G-56" style="edgeStyle=orthogonalEdgeStyle;rounded=0;orthogonalLoop=1;jettySize=auto;html=1;exitX=0.5;exitY=1;exitDx=0;exitDy=0;fontSize=15;" edge="1" parent="1" source="45bAfZuj3s9cAP-3UW4G-31" target="45bAfZuj3s9cAP-3UW4G-57">
          <mxGeometry relative="1" as="geometry">
            <mxPoint x="-79.57142857142844" y="400" as="targetPoint" />
          </mxGeometry>
        </mxCell>
        <mxCell id="45bAfZuj3s9cAP-3UW4G-31" value="Ausblick &amp;amp; Open Science&lt;br&gt;Länge 2min" style="rounded=0;whiteSpace=wrap;html=1;fontSize=15;" vertex="1" parent="1">
          <mxGeometry x="-140" y="280" width="120" height="60" as="geometry" />
        </mxCell>
        <mxCell id="45bAfZuj3s9cAP-3UW4G-38" style="edgeStyle=orthogonalEdgeStyle;rounded=0;orthogonalLoop=1;jettySize=auto;html=1;exitX=0.5;exitY=1;exitDx=0;exitDy=0;entryX=0.5;entryY=0;entryDx=0;entryDy=0;fontSize=15;" edge="1" parent="1" source="45bAfZuj3s9cAP-3UW4G-34" target="45bAfZuj3s9cAP-3UW4G-12">
          <mxGeometry relative="1" as="geometry" />
        </mxCell>
        <mxCell id="45bAfZuj3s9cAP-3UW4G-34" value="Thesen und Theorien" style="rounded=1;whiteSpace=wrap;html=1;fontSize=15;fillColor=#fff2cc;strokeColor=#d6b656;" vertex="1" parent="1">
          <mxGeometry x="-489.68" y="280" width="120" height="40" as="geometry" />
        </mxCell>
        <mxCell id="45bAfZuj3s9cAP-3UW4G-42" style="edgeStyle=orthogonalEdgeStyle;rounded=0;orthogonalLoop=1;jettySize=auto;html=1;exitX=0.5;exitY=1;exitDx=0;exitDy=0;entryX=0.453;entryY=0;entryDx=0;entryDy=0;entryPerimeter=0;fontSize=15;" edge="1" parent="1" source="45bAfZuj3s9cAP-3UW4G-35" target="45bAfZuj3s9cAP-3UW4G-25">
          <mxGeometry relative="1" as="geometry" />
        </mxCell>
        <mxCell id="45bAfZuj3s9cAP-3UW4G-35" value="Modelle" style="rounded=1;whiteSpace=wrap;html=1;fontSize=15;fillColor=#fff2cc;strokeColor=#d6b656;" vertex="1" parent="1">
          <mxGeometry x="-300" y="280" width="120" height="40" as="geometry" />
        </mxCell>
        <mxCell id="45bAfZuj3s9cAP-3UW4G-58" style="edgeStyle=orthogonalEdgeStyle;rounded=0;orthogonalLoop=1;jettySize=auto;html=1;exitX=0.5;exitY=1;exitDx=0;exitDy=0;fontSize=15;" edge="1" parent="1" source="45bAfZuj3s9cAP-3UW4G-46">
          <mxGeometry relative="1" as="geometry">
            <mxPoint x="250" y="490" as="targetPoint" />
            <Array as="points">
              <mxPoint x="120" y="430" />
              <mxPoint x="250" y="430" />
            </Array>
          </mxGeometry>
        </mxCell>
        <mxCell id="45bAfZuj3s9cAP-3UW4G-46" value="Phänomen Hassrede&lt;br&gt;Länge: 4min" style="rounded=0;whiteSpace=wrap;html=1;fontSize=15;" vertex="1" parent="1">
          <mxGeometry x="60" y="300" width="120" height="60" as="geometry" />
        </mxCell>
        <mxCell id="45bAfZuj3s9cAP-3UW4G-60" style="edgeStyle=orthogonalEdgeStyle;rounded=0;orthogonalLoop=1;jettySize=auto;html=1;exitX=0.5;exitY=1;exitDx=0;exitDy=0;fontSize=15;entryX=0.5;entryY=0;entryDx=0;entryDy=0;" edge="1" parent="1" target="45bAfZuj3s9cAP-3UW4G-61">
          <mxGeometry relative="1" as="geometry">
            <mxPoint x="250" y="480" as="targetPoint" />
            <mxPoint x="330" y="369.9999999999998" as="sourcePoint" />
            <Array as="points">
              <mxPoint x="370" y="370" />
              <mxPoint x="370" y="430" />
              <mxPoint x="250" y="430" />
            </Array>
          </mxGeometry>
        </mxCell>
        <mxCell id="45bAfZuj3s9cAP-3UW4G-53" value="Lernaufgaben" style="rounded=0;whiteSpace=wrap;html=1;fontSize=15;fillColor=#f8cecc;strokeColor=#b85450;" vertex="1" parent="1">
          <mxGeometry x="-494.99999999999983" y="640" width="120" height="60" as="geometry" />
        </mxCell>
        <mxCell id="45bAfZuj3s9cAP-3UW4G-55" value="Lernaufgaben" style="rounded=0;whiteSpace=wrap;html=1;fontSize=15;fillColor=#f8cecc;strokeColor=#b85450;" vertex="1" parent="1">
          <mxGeometry x="-295.0000000000002" y="520" width="120" height="60" as="geometry" />
        </mxCell>
        <mxCell id="45bAfZuj3s9cAP-3UW4G-57" value="Lernaufgaben" style="rounded=0;whiteSpace=wrap;html=1;fontSize=15;fillColor=#f8cecc;strokeColor=#b85450;" vertex="1" parent="1">
          <mxGeometry x="-139.57142857142844" y="370" width="120" height="60" as="geometry" />
        </mxCell>
        <mxCell id="45bAfZuj3s9cAP-3UW4G-61" value="Lernaufgaben" style="rounded=0;whiteSpace=wrap;html=1;fontSize=15;fillColor=#f8cecc;strokeColor=#b85450;" vertex="1" parent="1">
          <mxGeometry x="190" y="490" width="120" height="60" as="geometry" />
        </mxCell>
        <mxCell id="45bAfZuj3s9cAP-3UW4G-74" style="edgeStyle=orthogonalEdgeStyle;rounded=0;orthogonalLoop=1;jettySize=auto;html=1;exitX=0.5;exitY=1;exitDx=0;exitDy=0;fontSize=15;" edge="1" parent="1" source="45bAfZuj3s9cAP-3UW4G-64">
          <mxGeometry relative="1" as="geometry">
            <mxPoint x="610" y="459.9999999999998" as="targetPoint" />
          </mxGeometry>
        </mxCell>
        <mxCell id="45bAfZuj3s9cAP-3UW4G-64" value="Phänomen Prosoziales Verhalten&lt;br&gt;Länge: 3min" style="rounded=0;whiteSpace=wrap;html=1;fontSize=15;" vertex="1" parent="1">
          <mxGeometry x="470" y="300" width="120" height="110" as="geometry" />
        </mxCell>
        <mxCell id="45bAfZuj3s9cAP-3UW4G-77" style="edgeStyle=orthogonalEdgeStyle;rounded=0;orthogonalLoop=1;jettySize=auto;html=1;entryX=0.596;entryY=0.007;entryDx=0;entryDy=0;entryPerimeter=0;fontSize=15;" edge="1" parent="1" source="45bAfZuj3s9cAP-3UW4G-68" target="45bAfZuj3s9cAP-3UW4G-76">
          <mxGeometry relative="1" as="geometry" />
        </mxCell>
        <mxCell id="45bAfZuj3s9cAP-3UW4G-68" value="Prosoziales Verhalten in nicht prosozialen Medien&lt;br&gt;Länge: 3min" style="rounded=0;whiteSpace=wrap;html=1;fontSize=15;" vertex="1" parent="1">
          <mxGeometry x="640" y="305" width="120" height="105" as="geometry" />
        </mxCell>
        <mxCell id="45bAfZuj3s9cAP-3UW4G-72" value="Was tun gegen Hassrede&lt;br&gt;Länge: 2min" style="rounded=0;whiteSpace=wrap;html=1;fontSize=15;" vertex="1" parent="1">
          <mxGeometry x="310" y="310" width="120" height="60" as="geometry" />
        </mxCell>
        <mxCell id="45bAfZuj3s9cAP-3UW4G-76" value="Lernaugaben" style="rounded=0;whiteSpace=wrap;html=1;fontSize=15;fillColor=#f8cecc;strokeColor=#b85450;" vertex="1" parent="1">
          <mxGeometry x="540" y="459.9999999999998" width="120" height="60" as="geometry" />
        </mxCell>
      </root>
    </mxGraphModel>
  </diagram>
</mxfile>
